<?xml version="1.0" encoding="UTF-8"?>
<svg width="14px" height="14px" viewBox="0 0 14 14" version="1.1" xmlns="http://www.w3.org/2000/svg" xmlns:xlink="http://www.w3.org/1999/xlink">
    <title>Elements/Close for popup</title>
    <g id="Page-1" stroke="none" stroke-width="1" fill="none" fill-rule="evenodd">
        <g id="Shop_03" transform="translate(-74.000000, -191.000000)" fill="#3562FE">
            <g id="Group-2" transform="translate(55.000000, 173.000000)">
                <g id="Elements/Close-for-popup" transform="translate(13.000000, 12.000000)">
                    <path d="M13,4 C13.9037387,4 14.6363636,4.73262495 14.6363636,5.63636364 L14.636,11.363 L20.3636364,11.3636364 C21.267375,11.3636364 22,12.0962613 22,13 C22,13.9037387 21.267375,14.6363636 20.3636364,14.6363636 L14.636,14.636 L14.6363636,20.3636364 C14.6363636,21.267375 13.9037387,22 13,22 C12.0962613,22 11.3636364,21.267375 11.3636364,20.3636364 L11.363,14.636 L5.63636364,14.6363636 C4.73262495,14.6363636 4,13.9037387 4,13 C4,12.0962613 4.73262495,11.3636364 5.63636364,11.3636364 L11.363,11.363 L11.3636364,5.63636364 C11.3636364,4.73262495 12.0962613,4 13,4 Z" transform="translate(13.000000, 13.000000) rotate(-315.000000) translate(-13.000000, -13.000000) "></path>
                </g>
            </g>
        </g>
    </g>
</svg>